<svg height='300px' width='300px'  fill="#000000" xmlns="http://www.w3.org/2000/svg" xmlns:xlink="http://www.w3.org/1999/xlink" version="1.1" x="0px" y="0px" viewBox="0 0 90 90" enable-background="new 0 0 90 90" xml:space="preserve"><path d="M65.902,24.096l-6.938,1.859l1.903,1.903L35.392,53.334c-0.15,0.15-0.223,0.342-0.245,0.539l-3.153,0.311l-2.97,2.971  l3.554,0.268l0.268,3.555l2.97-2.971l0.313-3.154c0.195-0.021,0.388-0.094,0.538-0.244l25.476-25.475l1.904,1.905L65.902,24.096z"></path><path d="M42.766,44.545l1.273-1.273L29.553,28.785c7.482,0.761,14.459,3.843,20.075,8.897l2.555-2.554  c-7.207-6.552-16.467-10.137-26.284-10.137c-0.997,0-1.802,0.805-1.801,1.801c-0.001,0.997,0.804,1.802,1.801,1.801  c0.323,0,0.642,0.039,0.963,0.047L42.766,44.545z"></path><path d="M52.317,40.371c5.056,5.617,8.139,12.596,8.899,20.078L46.728,45.961l-1.273,1.273l15.905,15.906  c0.009,0.32,0.048,0.639,0.048,0.963c0,0.996,0.804,1.801,1.801,1.801c0.496,0,0.946-0.201,1.273-0.527  c0.326-0.326,0.527-0.777,0.527-1.273c0-9.818-3.586-19.08-10.138-26.287L52.317,40.371z"></path></svg>