<svg xmlns="http://www.w3.org/2000/svg" width="200" height="200" viewBox="0 0 200 200"><title>dreamweaver</title><g fill="#0a0a0a"><path d="M185 15v170H15V15h170m15-15H0v200h200V0z"/><path d="M43.52 127.8a45.59 45.59 0 0 0 7.54.37c17.78.12 28.31-10.67 28.31-31.63.12-18.29-9.42-28.7-26.53-28.7a39.59 39.59 0 0 0-9.32.86zm-13.66-70a126.64 126.64 0 0 1 21.76-1.7c14 0 23.65 3.19 30.52 9.56 7.23 6.49 11.67 16.31 11.67 30.42 0 14.71-4.55 25.75-11.67 32.87-7.42 7.48-19.3 11.27-33.86 11.27a137.54 137.54 0 0 1-18.42-1.09zM108.87 79.61l5.49 27.1c1.17 6.39 2.37 12.88 3.32 19.38h.24c1-6.5 2.77-13.11 4.3-19.24L129 79.61h10.74l6.57 26.48c1.62 7 3 13.5 4.2 20h.21c.86-6.5 2-13 3.44-20L160 79.61h13l-16.45 59.73h-12.27L138 115.05c-1.6-6.25-2.79-11.89-4-19.12h-.24a177.89 177.89 0 0 1-4 19.12l-6.69 24.29h-12.26l-15.5-59.73z"/></g></svg>