<svg xmlns="http://www.w3.org/2000/svg" width="200" height="200" viewBox="0 0 200 200"><title>github</title><path d="M100 12.22a90 90 0 0 1 28.51 175.38c-4.57.9-6.2-1.91-6.2-4.32 0-2.94.12-12.65.12-24.68 0-8.41-2.88-13.89-6.11-16.68 20.05-2.23 41.1-9.83 41.1-44.4a34.73 34.73 0 0 0-9.25-24.15c.91-2.28 4-11.43-.9-23.83 0 0-7.55-2.42-24.73 9.24a85 85 0 0 0-45.07 0c-17.19-11.66-24.74-9.24-24.74-9.24-4.89 12.4-1.82 21.55-.89 23.83a34.75 34.75 0 0 0-9.27 24.15c0 34.48 21 42.21 41 44.47-2.58 2.27-4.9 6.22-5.72 12-5.13 2.3-18.16 6.26-26.2-7.48 0 0-4.75-8.64-13.78-9.27 0 0-8.79-.12-.61 5.46 0 0 5.9 2.77 10 13.17 0 0 5.28 17.5 30.32 12.06 0 7.51.12 13.16.12 15.3 0 2.39-1.65 5.17-6.15 4.34A90 90 0 0 1 100 12.22" fill="#0a0a0a"/></svg>