<svg xmlns="http://www.w3.org/2000/svg" width="200" height="200" viewBox="0 0 200 200"><title>html</title><path d="M128.87 10H35.6c-2.61 0-4.7 2.11-4.7 6.19v170.59c0 1.11 2.09 3.22 4.7 3.22h128.81c2.59 0 4.69-2.11 4.69-3.22V51.72c0-2.25-.3-3-.82-3.49l-37.39-37.4a2.92 2.92 0 0 0-2-.83" fill="#f3f4f4"/><path fill="#e2e3e4" d="M130.54 48.57h38.07l-38.07-38.08v38.08z"/><path d="M164.4 190H35.59a4.7 4.7 0 0 1-4.69-4.72v-49.93h138.2v49.93a4.71 4.71 0 0 1-4.7 4.72" fill="#0a0a0a"/><path d="M66.1 148v32.36h-5.27v-14.6h-14v14.58h-5.37V148h5.35v14.16h14V148zm6.38 0v3.58h9.66v28.78h5.31v-28.8h9.67V148zm55.5 0l-9.59 22.14-9.62-22.14h-5.34v32.36h5.34v-22.28l7.29 18h4.67l7.25-18v22.26h5.36V148zm13.49 0v32.36h20.25v-4h-14.9V148z" fill="#fff"/><path d="M84.6 62.37a3.2 3.2 0 0 1 0 4.54l-17 17 17 17a3.22 3.22 0 0 1-4.6 4.57L60.77 86.2a3.19 3.19 0 0 1 0-4.53L80 62.37a3.22 3.22 0 0 1 4.56 0m57.85 19.29l-19.3-19.29a3.2 3.2 0 0 0-4.53 4.53l17 17-17 17a3.22 3.22 0 0 0 2.27 5.49 3.18 3.18 0 0 0 2.26-.94l19.3-19.29a3.2 3.2 0 0 0 0-4.54" fill="#0a0a0a"/></svg>