<svg xmlns="http://www.w3.org/2000/svg" width="200" height="200" viewBox="0 0 200 200"><title>illustrator</title><g fill="#0a0a0a"><path d="M185 15v170H15V15h170m15-15H0v200h200V0z"/><path d="M96.54 105.18L90 84.82c-1.59-5-2.94-10.67-4.17-15.46h-.25c-1.21 4.79-2.44 10.56-3.91 15.46l-6.39 20.36zm-23.66 11.41L65.75 140H50.18l26.49-82.65h19.27L122.78 140H106.6l-7.48-23.43zM128.68 80.29h15.22V140h-15.22zm16.06-16.69c0 4.53-3.3 8.09-8.57 8.09a7.93 7.93 0 0 1-8.35-8.09 8.46 8.46 0 0 1 16.92 0"/></g></svg>