<svg xmlns="http://www.w3.org/2000/svg" width="200" height="200" viewBox="0 0 200 200"><title>indesign</title><g fill="#0a0a0a"><path d="M59.17 57.09h15.09v82.68H59.17zM126.15 104.91l-.33-3.93c-1.26-5.88-5.61-10.66-11.91-10.66-8.87 0-13.81 8.57-13.81 19.75C100.1 121 105 129 113.8 129c5.61 0 10.55-4.16 11.9-10.67a18.65 18.65 0 0 0 .45-4.42zM140 52.66V123c0 6.11.22 12.74.45 16.8h-12.39l-.56-9.43h-.22a19.43 19.43 0 0 1-17.86 10.76c-13 0-23.35-12.13-23.35-30.52-.12-20 11.33-31.89 24.46-31.89 7.55 0 12.92 3.44 15.38 7.84h.24v-33.9z"/><path d="M185 15v170H15V15h170m15-15H0v200h200V0z"/></g></svg>