<svg id="Layer_1" data-name="Layer 1" xmlns="http://www.w3.org/2000/svg" viewBox="0 0 138.2 180"><path d="M128.87,10H35.6c-2.61,0-4.7,2.11-4.7,6.19V186.78c0,1.11,2.09,3.22,4.7,3.22H164.41c2.59,0,4.69-2.11,4.69-3.22V51.72c0-2.25-.3-3-.82-3.49l-37.39-37.4a2.94,2.94,0,0,0-2-.83" transform="translate(-30.9 -10)" style="fill:#f3f4f4"/><path d="M130.54,48.57h38.07L130.54,10.49V48.57Z" transform="translate(-30.9 -10)" style="fill:#e2e3e4"/><path d="M164.4,190H35.59a4.69,4.69,0,0,1-4.69-4.71h0V135.35H169.1v49.93a4.71,4.71,0,0,1-4.7,4.72h0" transform="translate(-30.9 -10)" style="fill:#0a0a0a"/><text transform="translate(3.81 161.88)" style="font-size:27px;fill:#fff;font-family:MyriadPro-Regular, Myriad Pro">J<tspan x="9.99" y="0" style="letter-spacing:-0.05298755787037037em">A</tspan><tspan x="25.08" y="0" style="letter-spacing:-0.05700231481481482em">V</tspan><tspan x="38.61" y="0" style="letter-spacing:-0.00003616898148148148em">ASCRIPT</tspan></text><text transform="translate(26.5 96)" style="font-size:73px;font-family:MyriadPro-Regular, Myriad Pro">{ ; }</text></svg>