<svg height='300px' width='300px'  fill="#000000" xmlns="http://www.w3.org/2000/svg" xmlns:xlink="http://www.w3.org/1999/xlink" version="1.1" x="0px" y="0px" viewBox="0 0 100 100" enable-background="new 0 0 100 100" xml:space="preserve"><path d="M87.891,56.188L64.114,32.411c-1.021-1.02-2.397-1.581-3.878-1.581c-0.819,0-1.626,0.184-2.364,0.517l-9.209-9.21  c-3.481-3.48-9.44-3.403-13.014,0.169c-3.572,3.571-3.649,9.53-0.169,13.013l5.008,5.008c0.997,0.997,1.573,2.253,1.621,3.537  c0.027,0.707-0.12,1.375-0.401,1.995c-0.622-0.225-1.277-0.361-1.947-0.361c-1.479,0-2.856,0.562-3.877,1.582L12.108,70.854  c-2.122,2.122-2.084,5.75,0.084,7.923c1.058,1.058,2.532,1.664,4.044,1.664c1.479,0,2.856-0.562,3.877-1.582L43.89,55.084  c1.718-1.717,1.997-4.407,0.903-6.526c0.916-1.442,1.379-3.108,1.314-4.844c-0.086-2.296-1.077-4.504-2.79-6.216l-5.008-5.008  c-1.948-1.948-1.871-5.317,0.168-7.355c2.04-2.04,5.41-2.116,7.358-0.17l9.21,9.211c-0.945,2.071-0.605,4.572,1.064,6.24  l23.775,23.776c1.02,1.02,2.396,1.582,3.876,1.582c1.511,0,2.984-0.606,4.046-1.665C89.977,61.939,90.016,58.312,87.891,56.188z   M41.062,52.256L17.286,76.03c-0.357,0.357-0.811,0.411-1.049,0.411c-0.459,0-0.903-0.18-1.215-0.492  c-0.625-0.627-0.665-1.686-0.085-2.267l23.776-23.775c0.357-0.357,0.811-0.41,1.049-0.41c0.46,0,0.904,0.18,1.217,0.492  C41.604,50.615,41.643,51.674,41.062,52.256z M84.98,61.279c-0.315,0.314-0.761,0.495-1.22,0.495c-0.238,0-0.69-0.054-1.047-0.41  L58.938,37.587c-0.58-0.579-0.54-1.639,0.081-2.263c0.314-0.314,0.759-0.494,1.218-0.494c0.239,0,0.692,0.054,1.05,0.41  l23.776,23.775C85.644,59.597,85.604,60.655,84.98,61.279z"></path></svg>