<svg xmlns="http://www.w3.org/2000/svg" width="200" height="200" viewBox="0 0 200 200"><title>photoshop</title><g fill="#0a0a0a"><path d="M185 15v170H15V15h170m15-15H0v200h200V0z"/><path d="M67.54 96.74a30.47 30.47 0 0 0 7.35.6c11.29 0 18.11-5.52 18.11-15.2 0-9.2-6.37-14.1-16.8-14.1a43.27 43.27 0 0 0-8.7.72zm-15-38.51a128.76 128.76 0 0 1 23-1.72c11 0 19.13 2.32 24.41 6.74 4.9 4 8.11 10.55 8.11 18.29s-2.38 14.34-7.06 18.76c-6 6-15.45 8.81-26.12 8.81a44.57 44.57 0 0 1-7.35-.47v31.14h-15zM112.79 125.92a33.68 33.68 0 0 0 15.34 4.3c6.62 0 9.55-2.7 9.55-6.62s-2.44-6.14-9.8-8.72c-11.65-4-16.55-10.41-16.44-17.41 0-10.55 8.72-18.77 22.57-18.77a35.25 35.25 0 0 1 15.83 3.55l-3 10.69a26.69 26.69 0 0 0-12.62-3.44c-5.4 0-8.35 2.58-8.35 6.25s2.82 5.65 10.42 8.35c10.8 3.92 15.82 9.43 15.94 18.27 0 10.8-8.46 18.77-24.29 18.77a38.54 38.54 0 0 1-18.15-4.3z"/></g></svg>