<svg xmlns="http://www.w3.org/2000/svg" width="200" height="200" viewBox="0 0 200 200"><title>sketch</title><path d="M195 74.74l-.5-.67L175.66 48l-20.4-27.08-2.83-1.63-51.94-5.57v.09l-.84-.09-52.03 5.52-2.84 1.63L24.3 48 5.16 74.52l-.16.17v.07l.19 5 91.67 106.57h6.29l91.63-106.48.19-5.06zM77.14 36.56l-26.67 29 1.59-38.46 37.44-4zm72.39 29l-38.33-41.7-.69-.76 37.44 4zM100 23.92L145.08 73H54.93L93 31.58zM16.58 73l26.69-36.15L41.53 73zm26.35 8.31l37.52 73.25-63-73.25zm104.83 0L100 174.53 52.25 81.3zm9.32 0h25.51l-63 73.25zm1.4-8.31l-1.74-36.14L183.43 73z" fill="#0a0a0a"/></svg>