<svg xmlns="http://www.w3.org/2000/svg" width="200" height="200" viewBox="0 0 200 200"><title>terminal</title><path d="M180.9 23.26H19.1a9.1 9.1 0 0 0-9.1 9.1v135.28a9.1 9.1 0 0 0 9.1 9.1h161.8a9.1 9.1 0 0 0 9.1-9.1V32.36a9.1 9.1 0 0 0-9.1-9.1zm.92 142.38a3.32 3.32 0 0 1-3.32 3.36h-157a3.31 3.31 0 0 1-3.3-3.31V34.36a3.31 3.31 0 0 1 3.3-3.31h157a3.32 3.32 0 0 1 3.32 3.31zM29.7 48.48h34.74a1.83 1.83 0 0 1 1.83 1.82v8.49a1.83 1.83 0 0 1-1.83 1.82H29.7a1.83 1.83 0 0 1-1.82-1.82V50.3a1.83 1.83 0 0 1 1.82-1.82m0 40.41h57a1.82 1.82 0 0 1 1.83 1.81v8.5a1.82 1.82 0 0 1-1.87 1.8h-57a1.82 1.82 0 0 1-1.82-1.81V90.7a1.82 1.82 0 0 1 1.82-1.81m68.69 0H119a1.81 1.81 0 0 1 1.81 1.81v8.5A1.81 1.81 0 0 1 119 101H98.39a1.82 1.82 0 0 1-1.82-1.81V90.7a1.82 1.82 0 0 1 1.82-1.81M29.7 68.69h77.17a1.82 1.82 0 0 1 1.82 1.81V79a1.82 1.82 0 0 1-1.82 1.81H29.7A1.82 1.82 0 0 1 27.88 79v-8.5a1.82 1.82 0 0 1 1.82-1.81"/></svg>