<svg xmlns="http://www.w3.org/2000/svg" width="200" height="200" viewBox="0 0 200 200"><title>wordpress</title><path d="M22.8 100a77 77 0 0 1 6.67-31.43L66.3 169.48A77.18 77.18 0 0 1 22.8 100m129.32-3.9c0-9.54-3.42-16.14-6.37-21.29-3.91-6.36-7.58-11.74-7.58-18.11 0-7.09 5.38-13.7 13-13.7.34 0 .66 0 1 .06A77.19 77.19 0 0 0 35.5 57.58c1.82.07 3.51.11 5 .11 8.06 0 20.57-1 20.57-1 4.16-.25 4.64 5.87.49 6.37 0 0-4.18.49-8.82.72l28.06 83.66 16.9-50.69-12-33c-4.16-.23-8.1-.72-8.1-.72-4.16-.25-3.67-6.62.49-6.37 0 0 12.74 1 20.34 1 8.06 0 20.57-1 20.57-1 4.16-.25 4.66 5.87.5 6.37 0 0-4.19.49-8.83.72l27.9 83 7.7-25.72c3.33-10.69 5.87-18.36 5.87-25m-50.76 10.65l-23.19 67.39a77.07 77.07 0 0 0 47.45-1.24 8.87 8.87 0 0 1-.56-1.06zM167.75 63a61.08 61.08 0 0 1 .52 7.94c0 7.83-1.46 16.63-5.87 27.64l-23.58 68.19A77.24 77.24 0 0 0 167.75 63M100 185.88A85.88 85.88 0 1 0 14.12 100 86 86 0 0 0 100 185.88M100 10a90 90 0 1 1-90 90 90.1 90.1 0 0 1 90-90" fill="#0a0a0a"/></svg>